<svg width="24" height="24" viewBox="0 0 24 24" fill="none" xmlns="http://www.w3.org/2000/svg">
<g id="icon clock">
<g id="Group">
<g id="Vector">
<path d="M19.4247 4.57539C20.3997 5.55041 21.1731 6.70792 21.7008 7.98184C22.2285 9.25577 22.5001 10.6211 22.5001 12C22.5001 13.3789 22.2285 14.7443 21.7008 16.0182C21.1731 17.2921 20.3997 18.4497 19.4247 19.4247C18.4497 20.3997 17.2921 21.1731 16.0182 21.7008C14.7443 22.2285 13.3789 22.5001 12 22.5001C10.6211 22.5001 9.25577 22.2285 7.98184 21.7008C6.70792 21.1731 5.55041 20.3997 4.57539 19.4247C2.60625 17.4555 1.5 14.7848 1.5 12C1.5 9.21525 2.60625 6.54453 4.57539 4.57539C6.54453 2.60625 9.21525 1.5 12 1.5C14.7848 1.5 17.4555 2.60625 19.4247 4.57539Z" fill="#0D6843"/>
</g>
<path id="Vector_2" d="M16.0832 15.8726L11.6724 13.2415V6.6499" stroke="white" stroke-width="2" stroke-linecap="round" stroke-linejoin="round"/>
</g>
</g>
</svg>
